# xmcd
#
# Track frame offsets:
#	150
#	13524
#	27545
#	51046
#	65438
#	80168
#	94411
#	109198
#	122899
#	135826
#	149705
#	163520
#	177573
#	190607
#	204108
#	218562
#
# Disc length: 3086 seconds
#
# Revision: 1
# Processed by: cddbd v1.5.2PL0 Copyright (c) Steve Scherf et al.
# Submitted via: audiograbber 1.83.01
#
DISCID=e30c0c10
DTITLE=Compiled by Stefan Grossman - Delta Blues Guitar
DYEAR=1900
DGENRE=Blues
TTITLE0=Willie Brown - Future Blues
TTITLE1=Willie Brown - M&O Blues
TTITLE2=Willie Brown - Ragged and Dirty
TTITLE3=Son House - Dry Spell Blues Pt. 1
TTITLE4=Son House - Dry Spell Blues Pt. 2
TTITLE5=Son House - My Black Mama Pt. 1
TTITLE6=Son House - My Black Mama Pt. 2
TTITLE7=Skip James - Devil Got My Woman
TTITLE8=Skip James - Hard Time Killin' Floor Blues
TTITLE9=Skip James - Special Rider
TTITLE10=Hambone Willie Newbern - Roll and Tumble Blues
TTITLE11=Charlie Patton - Screamin' and Hollerin' the Blues
TTITLE12=Charlie Patton - Stone Pony Blues
TTITLE13=Charlie Patton - 34 Blues
TTITLE14=Good Boy Blues - Good Boy Blues
TTITLE15=That's No Way To Get Along - That's No Way To Get Along
EXTD=Excellent companion CD to Stefan Grossman's instructional book "Delta Blue
EXTD=s Guitar".  ISBN: 978-0-7390-4280-9
EXTT0=
EXTT1=
EXTT2=
EXTT3=
EXTT4=
EXTT5=
EXTT6=
EXTT7=
EXTT8=
EXTT9=
EXTT10=
EXTT11=
EXTT12=
EXTT13=
EXTT14=
EXTT15=
PLAYORDER=
